<svg xmlns="http://www.w3.org/2000/svg" xmlns:xlink="http://www.w3.org/1999/xlink" width="1000" zoomAndPan="magnify" viewBox="0 0 750 89.999999" height="120" preserveAspectRatio="xMidYMid meet" version="1.0"><defs><g/></defs><g fill="#ffffff" fill-opacity="1"><g transform="translate(3.030359, 79.183782)"><g><path d="M 53.09375 -13.390625 L 23.9375 -13.390625 L 18.515625 0 L -1.375 0 L 29.0625 -68.953125 L 48.265625 -68.953125 L 78.796875 0 L 58.515625 0 Z M 47.375 -27.78125 L 38.515625 -49.84375 L 29.65625 -27.78125 Z M 47.375 -27.78125 "/></g></g></g><g fill="#ffffff" fill-opacity="1"><g transform="translate(72.366772, 79.183782)"><g><path d="M 6.890625 -68.953125 L 39.5 -68.953125 C 47.050781 -68.953125 53.75 -67.539062 59.59375 -64.71875 C 65.4375 -61.894531 69.96875 -57.890625 73.1875 -52.703125 C 76.40625 -47.515625 78.015625 -41.4375 78.015625 -34.46875 C 78.015625 -27.507812 76.40625 -21.4375 73.1875 -16.25 C 69.96875 -11.0625 65.4375 -7.054688 59.59375 -4.234375 C 53.75 -1.410156 47.050781 0 39.5 0 L 6.890625 0 Z M 38.703125 -15.5625 C 44.617188 -15.5625 49.363281 -17.234375 52.9375 -20.578125 C 56.519531 -23.929688 58.3125 -28.5625 58.3125 -34.46875 C 58.3125 -40.382812 56.519531 -45.015625 52.9375 -48.359375 C 49.363281 -51.710938 44.617188 -53.390625 38.703125 -53.390625 L 26.390625 -53.390625 L 26.390625 -15.5625 Z M 38.703125 -15.5625 "/></g></g></g><g fill="#ffffff" fill-opacity="1"><g transform="translate(145.642802, 79.183782)"><g><path d="M 6.890625 -68.953125 L 26.390625 -68.953125 L 26.390625 -15.46875 L 59.296875 -15.46875 L 59.296875 0 L 6.890625 0 Z M 6.890625 -68.953125 "/></g></g></g><g fill="#ffffff" fill-opacity="1"><g transform="translate(223.66716, 79.018021)"><g><path d="M 58.46875 0 L 42.671875 -22.21875 C 40.890625 -22.019531 39.046875 -21.921875 37.140625 -21.921875 L 18.5625 -21.921875 L 18.5625 0 L 11.265625 0 L 11.265625 -69.140625 L 37.140625 -69.140625 C 45.960938 -69.140625 52.875 -67.03125 57.875 -62.8125 C 62.882812 -58.601562 65.390625 -52.8125 65.390625 -45.4375 C 65.390625 -40.03125 64.019531 -35.46875 61.28125 -31.75 C 58.550781 -28.03125 54.648438 -25.347656 49.578125 -23.703125 L 66.46875 0 Z M 36.9375 -28.140625 C 43.78125 -28.140625 49.015625 -29.65625 52.640625 -32.6875 C 56.265625 -35.71875 58.078125 -39.96875 58.078125 -45.4375 C 58.078125 -51.03125 56.265625 -55.320312 52.640625 -58.3125 C 49.015625 -61.3125 43.78125 -62.8125 36.9375 -62.8125 L 18.5625 -62.8125 L 18.5625 -28.140625 Z M 36.9375 -28.140625 "/></g></g></g><g fill="#ffffff" fill-opacity="1"><g transform="translate(294.976132, 79.018021)"><g><path d="M 41.484375 0.59375 C 34.628906 0.59375 28.421875 -0.9375 22.859375 -4 C 17.296875 -7.0625 12.953125 -11.257812 9.828125 -16.59375 C 6.703125 -21.925781 5.140625 -27.914062 5.140625 -34.5625 C 5.140625 -41.21875 6.703125 -47.210938 9.828125 -52.546875 C 12.953125 -57.878906 17.296875 -62.078125 22.859375 -65.140625 C 28.421875 -68.203125 34.628906 -69.734375 41.484375 -69.734375 C 48.328125 -69.734375 54.5 -68.21875 60 -65.1875 C 65.5 -62.15625 69.828125 -57.957031 72.984375 -52.59375 C 76.148438 -47.226562 77.734375 -41.21875 77.734375 -34.5625 C 77.734375 -27.914062 76.148438 -21.910156 72.984375 -16.546875 C 69.828125 -11.179688 65.5 -6.984375 60 -3.953125 C 54.5 -0.921875 48.328125 0.59375 41.484375 0.59375 Z M 41.484375 -5.921875 C 46.941406 -5.921875 51.875 -7.15625 56.28125 -9.625 C 60.695312 -12.09375 64.15625 -15.515625 66.65625 -19.890625 C 69.164062 -24.273438 70.421875 -29.164062 70.421875 -34.5625 C 70.421875 -39.96875 69.164062 -44.859375 66.65625 -49.234375 C 64.15625 -53.609375 60.695312 -57.03125 56.28125 -59.5 C 51.875 -61.96875 46.941406 -63.203125 41.484375 -63.203125 C 36.015625 -63.203125 31.054688 -61.96875 26.609375 -59.5 C 22.171875 -57.03125 18.679688 -53.609375 16.140625 -49.234375 C 13.609375 -44.859375 12.34375 -39.96875 12.34375 -34.5625 C 12.34375 -29.164062 13.609375 -24.273438 16.140625 -19.890625 C 18.679688 -15.515625 22.171875 -12.09375 26.609375 -9.625 C 31.054688 -7.15625 36.015625 -5.921875 41.484375 -5.921875 Z M 41.484375 -5.921875 "/></g></g></g><g fill="#ffffff" fill-opacity="1"><g transform="translate(377.741961, 79.018021)"><g><path d="M 54.8125 -35.65625 C 59.351562 -34.664062 62.859375 -32.703125 65.328125 -29.765625 C 67.796875 -26.835938 69.03125 -23.070312 69.03125 -18.46875 C 69.03125 -12.539062 66.84375 -7.976562 62.46875 -4.78125 C 58.09375 -1.59375 51.625 0 43.0625 0 L 11.265625 0 L 11.265625 -69.140625 L 41.09375 -69.140625 C 48.789062 -69.140625 54.765625 -67.59375 59.015625 -64.5 C 63.265625 -61.40625 65.390625 -57.023438 65.390625 -51.359375 C 65.390625 -47.535156 64.445312 -44.289062 62.5625 -41.625 C 60.6875 -38.957031 58.101562 -36.96875 54.8125 -35.65625 Z M 18.5625 -63.109375 L 18.5625 -38.03125 L 40.59375 -38.03125 C 46.1875 -38.03125 50.5 -39.097656 53.53125 -41.234375 C 56.5625 -43.367188 58.078125 -46.476562 58.078125 -50.5625 C 58.078125 -54.644531 56.5625 -57.753906 53.53125 -59.890625 C 50.5 -62.035156 46.1875 -63.109375 40.59375 -63.109375 Z M 42.96875 -6.03125 C 49.15625 -6.03125 53.828125 -7.082031 56.984375 -9.1875 C 60.148438 -11.289062 61.734375 -14.582031 61.734375 -19.0625 C 61.734375 -27.6875 55.476562 -32 42.96875 -32 L 18.5625 -32 L 18.5625 -6.03125 Z M 42.96875 -6.03125 "/></g></g></g><g fill="#ffffff" fill-opacity="1"><g transform="translate(452.112669, 79.018021)"><g><path d="M 41.484375 0.59375 C 34.628906 0.59375 28.421875 -0.9375 22.859375 -4 C 17.296875 -7.0625 12.953125 -11.257812 9.828125 -16.59375 C 6.703125 -21.925781 5.140625 -27.914062 5.140625 -34.5625 C 5.140625 -41.21875 6.703125 -47.210938 9.828125 -52.546875 C 12.953125 -57.878906 17.296875 -62.078125 22.859375 -65.140625 C 28.421875 -68.203125 34.628906 -69.734375 41.484375 -69.734375 C 48.328125 -69.734375 54.5 -68.21875 60 -65.1875 C 65.5 -62.15625 69.828125 -57.957031 72.984375 -52.59375 C 76.148438 -47.226562 77.734375 -41.21875 77.734375 -34.5625 C 77.734375 -27.914062 76.148438 -21.910156 72.984375 -16.546875 C 69.828125 -11.179688 65.5 -6.984375 60 -3.953125 C 54.5 -0.921875 48.328125 0.59375 41.484375 0.59375 Z M 41.484375 -5.921875 C 46.941406 -5.921875 51.875 -7.15625 56.28125 -9.625 C 60.695312 -12.09375 64.15625 -15.515625 66.65625 -19.890625 C 69.164062 -24.273438 70.421875 -29.164062 70.421875 -34.5625 C 70.421875 -39.96875 69.164062 -44.859375 66.65625 -49.234375 C 64.15625 -53.609375 60.695312 -57.03125 56.28125 -59.5 C 51.875 -61.96875 46.941406 -63.203125 41.484375 -63.203125 C 36.015625 -63.203125 31.054688 -61.96875 26.609375 -59.5 C 22.171875 -57.03125 18.679688 -53.609375 16.140625 -49.234375 C 13.609375 -44.859375 12.34375 -39.96875 12.34375 -34.5625 C 12.34375 -29.164062 13.609375 -24.273438 16.140625 -19.890625 C 18.679688 -15.515625 22.171875 -12.09375 26.609375 -9.625 C 31.054688 -7.15625 36.015625 -5.921875 41.484375 -5.921875 Z M 41.484375 -5.921875 "/></g></g></g><g fill="#ffffff" fill-opacity="1"><g transform="translate(534.878488, 79.018021)"><g><path d="M 24.6875 -62.8125 L 0.390625 -62.8125 L 0.390625 -69.140625 L 56.296875 -69.140625 L 56.296875 -62.8125 L 32 -62.8125 L 32 0 L 24.6875 0 Z M 24.6875 -62.8125 "/></g></g></g><g fill="#ffffff" fill-opacity="1"><g transform="translate(591.471344, 79.018021)"><g><path d="M 11.265625 -69.140625 L 18.5625 -69.140625 L 18.5625 0 L 11.265625 0 Z M 11.265625 -69.140625 "/></g></g></g><g fill="#ffffff" fill-opacity="1"><g transform="translate(621.199871, 79.018021)"><g><path d="M 41.28125 0.59375 C 34.4375 0.59375 28.265625 -0.921875 22.765625 -3.953125 C 17.265625 -6.984375 12.953125 -11.179688 9.828125 -16.546875 C 6.703125 -21.910156 5.140625 -27.914062 5.140625 -34.5625 C 5.140625 -41.21875 6.703125 -47.226562 9.828125 -52.59375 C 12.953125 -57.957031 17.28125 -62.15625 22.8125 -65.1875 C 28.34375 -68.21875 34.53125 -69.734375 41.375 -69.734375 C 46.519531 -69.734375 51.265625 -68.875 55.609375 -67.15625 C 59.953125 -65.445312 63.640625 -62.945312 66.671875 -59.65625 L 62.03125 -55.015625 C 56.625 -60.472656 49.804688 -63.203125 41.578125 -63.203125 C 36.109375 -63.203125 31.132812 -61.953125 26.65625 -59.453125 C 22.1875 -56.953125 18.679688 -53.53125 16.140625 -49.1875 C 13.609375 -44.84375 12.34375 -39.96875 12.34375 -34.5625 C 12.34375 -29.164062 13.609375 -24.296875 16.140625 -19.953125 C 18.679688 -15.609375 22.1875 -12.179688 26.65625 -9.671875 C 31.132812 -7.171875 36.109375 -5.921875 41.578125 -5.921875 C 49.878906 -5.921875 56.695312 -8.6875 62.03125 -14.21875 L 66.671875 -9.578125 C 63.640625 -6.285156 59.929688 -3.765625 55.546875 -2.015625 C 51.171875 -0.273438 46.414062 0.59375 41.28125 0.59375 Z M 41.28125 0.59375 "/></g></g></g><g fill="#ffffff" fill-opacity="1"><g transform="translate(692.113801, 79.018021)"><g><path d="M 30.328125 0.59375 C 25.191406 0.59375 20.269531 -0.226562 15.5625 -1.875 C 10.851562 -3.519531 7.210938 -5.691406 4.640625 -8.390625 L 7.5 -14.03125 C 10.007812 -11.519531 13.335938 -9.488281 17.484375 -7.9375 C 21.628906 -6.394531 25.910156 -5.625 30.328125 -5.625 C 36.515625 -5.625 41.15625 -6.757812 44.25 -9.03125 C 47.34375 -11.300781 48.890625 -14.25 48.890625 -17.875 C 48.890625 -20.644531 48.050781 -22.851562 46.375 -24.5 C 44.695312 -26.144531 42.640625 -27.410156 40.203125 -28.296875 C 37.765625 -29.179688 34.375 -30.148438 30.03125 -31.203125 C 24.820312 -32.523438 20.671875 -33.796875 17.578125 -35.015625 C 14.484375 -36.234375 11.832031 -38.09375 9.625 -40.59375 C 7.425781 -43.09375 6.328125 -46.484375 6.328125 -50.765625 C 6.328125 -54.253906 7.25 -57.429688 9.09375 -60.296875 C 10.9375 -63.160156 13.765625 -65.445312 17.578125 -67.15625 C 21.398438 -68.875 26.140625 -69.734375 31.796875 -69.734375 C 35.753906 -69.734375 39.625 -69.1875 43.40625 -68.09375 C 47.195312 -67.007812 50.472656 -65.515625 53.234375 -63.609375 L 50.765625 -57.78125 C 47.867188 -59.6875 44.773438 -61.113281 41.484375 -62.0625 C 38.191406 -63.019531 34.960938 -63.5 31.796875 -63.5 C 25.742188 -63.5 21.1875 -62.332031 18.125 -60 C 15.0625 -57.664062 13.53125 -54.65625 13.53125 -50.96875 C 13.53125 -48.195312 14.367188 -45.972656 16.046875 -44.296875 C 17.722656 -42.617188 19.828125 -41.332031 22.359375 -40.4375 C 24.898438 -39.550781 28.3125 -38.582031 32.59375 -37.53125 C 37.664062 -36.28125 41.765625 -35.046875 44.890625 -33.828125 C 48.015625 -32.609375 50.660156 -30.765625 52.828125 -28.296875 C 55.003906 -25.828125 56.09375 -22.484375 56.09375 -18.265625 C 56.09375 -14.773438 55.15625 -11.597656 53.28125 -8.734375 C 51.40625 -5.867188 48.523438 -3.597656 44.640625 -1.921875 C 40.753906 -0.242188 35.984375 0.59375 30.328125 0.59375 Z M 30.328125 0.59375 "/></g></g></g></svg>