<svg xmlns="http://www.w3.org/2000/svg" xmlns:xlink="http://www.w3.org/1999/xlink" width="500" zoomAndPan="magnify" viewBox="0 0 375 149.999998" height="200" preserveAspectRatio="xMidYMid meet" version="1.0"><defs><g/></defs><g fill="#ffffff" fill-opacity="1"><g transform="translate(4.935214, 65.83505)"><g><path d="M 37.484375 -9.453125 L 16.890625 -9.453125 L 13.078125 0 L -0.96875 0 L 20.515625 -48.671875 L 34.0625 -48.671875 L 55.625 0 L 41.296875 0 Z M 33.4375 -19.609375 L 27.1875 -35.1875 L 20.921875 -19.609375 Z M 33.4375 -19.609375 "/></g></g></g><g fill="#ffffff" fill-opacity="1"><g transform="translate(53.879185, 65.83505)"><g><path d="M 4.859375 -48.671875 L 27.875 -48.671875 C 33.207031 -48.671875 37.9375 -47.671875 42.0625 -45.671875 C 46.1875 -43.679688 49.382812 -40.851562 51.65625 -37.1875 C 53.925781 -33.53125 55.0625 -29.242188 55.0625 -24.328125 C 55.0625 -19.421875 53.925781 -15.132812 51.65625 -11.46875 C 49.382812 -7.8125 46.1875 -4.984375 42.0625 -2.984375 C 37.9375 -0.992188 33.207031 0 27.875 0 L 4.859375 0 Z M 27.328125 -10.984375 C 31.492188 -10.984375 34.835938 -12.164062 37.359375 -14.53125 C 39.890625 -16.894531 41.15625 -20.160156 41.15625 -24.328125 C 41.15625 -28.503906 39.890625 -31.773438 37.359375 -34.140625 C 34.835938 -36.503906 31.492188 -37.6875 27.328125 -37.6875 L 18.640625 -37.6875 L 18.640625 -10.984375 Z M 27.328125 -10.984375 "/></g></g></g><g fill="#ffffff" fill-opacity="1"><g transform="translate(105.604098, 65.83505)"><g><path d="M 4.859375 -48.671875 L 18.640625 -48.671875 L 18.640625 -10.921875 L 41.859375 -10.921875 L 41.859375 0 L 4.859375 0 Z M 4.859375 -48.671875 "/></g></g></g><g fill="#ffffff" fill-opacity="1"><g transform="translate(0.541723, 132.308)"><g><path d="M 41.28125 0 L 30.125 -15.6875 C 28.863281 -15.550781 27.5625 -15.484375 26.21875 -15.484375 L 13.109375 -15.484375 L 13.109375 0 L 7.953125 0 L 7.953125 -48.796875 L 26.21875 -48.796875 C 32.445312 -48.796875 37.328125 -47.304688 40.859375 -44.328125 C 44.390625 -41.359375 46.15625 -37.273438 46.15625 -32.078125 C 46.15625 -28.265625 45.191406 -25.039062 43.265625 -22.40625 C 41.335938 -19.78125 38.582031 -17.890625 35 -16.734375 L 46.921875 0 Z M 26.078125 -19.875 C 30.910156 -19.875 34.601562 -20.941406 37.15625 -23.078125 C 39.71875 -25.210938 41 -28.210938 41 -32.078125 C 41 -36.023438 39.71875 -39.054688 37.15625 -41.171875 C 34.601562 -43.285156 30.910156 -44.34375 26.078125 -44.34375 L 13.109375 -44.34375 L 13.109375 -19.875 Z M 26.078125 -19.875 "/></g></g></g><g fill="#ffffff" fill-opacity="1"><g transform="translate(50.878104, 132.308)"><g><path d="M 29.28125 0.421875 C 24.445312 0.421875 20.066406 -0.65625 16.140625 -2.8125 C 12.210938 -4.976562 9.144531 -7.941406 6.9375 -11.703125 C 4.726562 -15.472656 3.625 -19.707031 3.625 -24.40625 C 3.625 -29.09375 4.726562 -33.316406 6.9375 -37.078125 C 9.144531 -40.847656 12.210938 -43.8125 16.140625 -45.96875 C 20.066406 -48.132812 24.445312 -49.21875 29.28125 -49.21875 C 34.113281 -49.21875 38.46875 -48.148438 42.34375 -46.015625 C 46.226562 -43.878906 49.285156 -40.914062 51.515625 -37.125 C 53.753906 -33.332031 54.875 -29.09375 54.875 -24.40625 C 54.875 -19.707031 53.753906 -15.460938 51.515625 -11.671875 C 49.285156 -7.890625 46.226562 -4.925781 42.34375 -2.78125 C 38.46875 -0.644531 34.113281 0.421875 29.28125 0.421875 Z M 29.28125 -4.1875 C 33.132812 -4.1875 36.617188 -5.054688 39.734375 -6.796875 C 42.847656 -8.535156 45.285156 -10.953125 47.046875 -14.046875 C 48.816406 -17.140625 49.703125 -20.59375 49.703125 -24.40625 C 49.703125 -28.21875 48.816406 -31.664062 47.046875 -34.75 C 45.285156 -37.84375 42.847656 -40.257812 39.734375 -42 C 36.617188 -43.75 33.132812 -44.625 29.28125 -44.625 C 25.425781 -44.625 21.925781 -43.75 18.78125 -42 C 15.644531 -40.257812 13.179688 -37.84375 11.390625 -34.75 C 9.609375 -31.664062 8.71875 -28.21875 8.71875 -24.40625 C 8.71875 -20.59375 9.609375 -17.140625 11.390625 -14.046875 C 13.179688 -10.953125 15.644531 -8.535156 18.78125 -6.796875 C 21.925781 -5.054688 25.425781 -4.1875 29.28125 -4.1875 Z M 29.28125 -4.1875 "/></g></g></g><g fill="#ffffff" fill-opacity="1"><g transform="translate(109.301779, 132.308)"><g><path d="M 38.6875 -25.171875 C 41.894531 -24.472656 44.367188 -23.085938 46.109375 -21.015625 C 47.859375 -18.953125 48.734375 -16.289062 48.734375 -13.03125 C 48.734375 -8.851562 47.1875 -5.632812 44.09375 -3.375 C 41 -1.125 36.429688 0 30.390625 0 L 7.953125 0 L 7.953125 -48.796875 L 29 -48.796875 C 34.4375 -48.796875 38.65625 -47.703125 41.65625 -45.515625 C 44.65625 -43.335938 46.15625 -40.25 46.15625 -36.25 C 46.15625 -33.550781 45.492188 -31.257812 44.171875 -29.375 C 42.847656 -27.5 41.019531 -26.097656 38.6875 -25.171875 Z M 13.109375 -44.546875 L 13.109375 -26.84375 L 28.65625 -26.84375 C 32.601562 -26.84375 35.644531 -27.597656 37.78125 -29.109375 C 39.925781 -30.617188 41 -32.816406 41 -35.703125 C 41 -38.578125 39.925781 -40.769531 37.78125 -42.28125 C 35.644531 -43.789062 32.601562 -44.546875 28.65625 -44.546875 Z M 30.328125 -4.25 C 34.691406 -4.25 37.988281 -4.992188 40.21875 -6.484375 C 42.457031 -7.972656 43.578125 -10.296875 43.578125 -13.453125 C 43.578125 -19.546875 39.160156 -22.59375 30.328125 -22.59375 L 13.109375 -22.59375 L 13.109375 -4.25 Z M 30.328125 -4.25 "/></g></g></g><g fill="#ffffff" fill-opacity="1"><g transform="translate(161.799412, 132.308)"><g><path d="M 29.28125 0.421875 C 24.445312 0.421875 20.066406 -0.65625 16.140625 -2.8125 C 12.210938 -4.976562 9.144531 -7.941406 6.9375 -11.703125 C 4.726562 -15.472656 3.625 -19.707031 3.625 -24.40625 C 3.625 -29.09375 4.726562 -33.316406 6.9375 -37.078125 C 9.144531 -40.847656 12.210938 -43.8125 16.140625 -45.96875 C 20.066406 -48.132812 24.445312 -49.21875 29.28125 -49.21875 C 34.113281 -49.21875 38.46875 -48.148438 42.34375 -46.015625 C 46.226562 -43.878906 49.285156 -40.914062 51.515625 -37.125 C 53.753906 -33.332031 54.875 -29.09375 54.875 -24.40625 C 54.875 -19.707031 53.753906 -15.460938 51.515625 -11.671875 C 49.285156 -7.890625 46.226562 -4.925781 42.34375 -2.78125 C 38.46875 -0.644531 34.113281 0.421875 29.28125 0.421875 Z M 29.28125 -4.1875 C 33.132812 -4.1875 36.617188 -5.054688 39.734375 -6.796875 C 42.847656 -8.535156 45.285156 -10.953125 47.046875 -14.046875 C 48.816406 -17.140625 49.703125 -20.59375 49.703125 -24.40625 C 49.703125 -28.21875 48.816406 -31.664062 47.046875 -34.75 C 45.285156 -37.84375 42.847656 -40.257812 39.734375 -42 C 36.617188 -43.75 33.132812 -44.625 29.28125 -44.625 C 25.425781 -44.625 21.925781 -43.75 18.78125 -42 C 15.644531 -40.257812 13.179688 -37.84375 11.390625 -34.75 C 9.609375 -31.664062 8.71875 -28.21875 8.71875 -24.40625 C 8.71875 -20.59375 9.609375 -17.140625 11.390625 -14.046875 C 13.179688 -10.953125 15.644531 -8.535156 18.78125 -6.796875 C 21.925781 -5.054688 25.425781 -4.1875 29.28125 -4.1875 Z M 29.28125 -4.1875 "/></g></g></g><g fill="#ffffff" fill-opacity="1"><g transform="translate(220.223081, 132.308)"><g><path d="M 17.4375 -44.34375 L 0.28125 -44.34375 L 0.28125 -48.796875 L 39.734375 -48.796875 L 39.734375 -44.34375 L 22.59375 -44.34375 L 22.59375 0 L 17.4375 0 Z M 17.4375 -44.34375 "/></g></g></g><g fill="#ffffff" fill-opacity="1"><g transform="translate(260.171483, 132.308)"><g><path d="M 7.953125 -48.796875 L 13.109375 -48.796875 L 13.109375 0 L 7.953125 0 Z M 7.953125 -48.796875 "/></g></g></g><g fill="#ffffff" fill-opacity="1"><g transform="translate(281.15659, 132.308)"><g><path d="M 29.140625 0.421875 C 24.304688 0.421875 19.945312 -0.644531 16.0625 -2.78125 C 12.1875 -4.925781 9.144531 -7.890625 6.9375 -11.671875 C 4.726562 -15.460938 3.625 -19.707031 3.625 -24.40625 C 3.625 -29.09375 4.726562 -33.332031 6.9375 -37.125 C 9.144531 -40.914062 12.203125 -43.878906 16.109375 -46.015625 C 20.015625 -48.148438 24.382812 -49.21875 29.21875 -49.21875 C 32.84375 -49.21875 36.1875 -48.613281 39.25 -47.40625 C 42.320312 -46.195312 44.925781 -44.429688 47.0625 -42.109375 L 43.78125 -38.828125 C 39.96875 -42.691406 35.160156 -44.625 29.359375 -44.625 C 25.492188 -44.625 21.976562 -43.738281 18.8125 -41.96875 C 15.65625 -40.207031 13.179688 -37.789062 11.390625 -34.71875 C 9.609375 -31.65625 8.71875 -28.21875 8.71875 -24.40625 C 8.71875 -20.59375 9.609375 -17.148438 11.390625 -14.078125 C 13.179688 -11.015625 15.65625 -8.597656 18.8125 -6.828125 C 21.976562 -5.066406 25.492188 -4.1875 29.359375 -4.1875 C 35.210938 -4.1875 40.019531 -6.140625 43.78125 -10.046875 L 47.0625 -6.765625 C 44.925781 -4.441406 42.3125 -2.660156 39.21875 -1.421875 C 36.125 -0.191406 32.765625 0.421875 29.140625 0.421875 Z M 29.140625 0.421875 "/></g></g></g><g fill="#ffffff" fill-opacity="1"><g transform="translate(331.214113, 132.308)"><g><path d="M 21.40625 0.421875 C 17.78125 0.421875 14.304688 -0.15625 10.984375 -1.3125 C 7.660156 -2.476562 5.09375 -4.015625 3.28125 -5.921875 L 5.296875 -9.90625 C 7.066406 -8.132812 9.414062 -6.703125 12.34375 -5.609375 C 15.269531 -4.515625 18.289062 -3.96875 21.40625 -3.96875 C 25.769531 -3.96875 29.046875 -4.769531 31.234375 -6.375 C 33.421875 -7.976562 34.515625 -10.0625 34.515625 -12.625 C 34.515625 -14.570312 33.921875 -16.125 32.734375 -17.28125 C 31.546875 -18.445312 30.09375 -19.34375 28.375 -19.96875 C 26.65625 -20.601562 24.257812 -21.289062 21.1875 -22.03125 C 17.519531 -22.957031 14.59375 -23.847656 12.40625 -24.703125 C 10.226562 -25.566406 8.359375 -26.878906 6.796875 -28.640625 C 5.242188 -30.410156 4.46875 -32.804688 4.46875 -35.828125 C 4.46875 -38.296875 5.113281 -40.539062 6.40625 -42.5625 C 7.707031 -44.582031 9.707031 -46.195312 12.40625 -47.40625 C 15.101562 -48.613281 18.453125 -49.21875 22.453125 -49.21875 C 25.234375 -49.21875 27.960938 -48.832031 30.640625 -48.0625 C 33.316406 -47.300781 35.628906 -46.25 37.578125 -44.90625 L 35.828125 -40.78125 C 33.785156 -42.132812 31.601562 -43.144531 29.28125 -43.8125 C 26.957031 -44.488281 24.679688 -44.828125 22.453125 -44.828125 C 18.171875 -44.828125 14.945312 -44 12.78125 -42.34375 C 10.625 -40.695312 9.546875 -38.570312 9.546875 -35.96875 C 9.546875 -34.019531 10.140625 -32.453125 11.328125 -31.265625 C 12.515625 -30.078125 14 -29.171875 15.78125 -28.546875 C 17.570312 -27.921875 19.976562 -27.238281 23 -26.5 C 26.582031 -25.613281 29.476562 -24.738281 31.6875 -23.875 C 33.894531 -23.019531 35.765625 -21.71875 37.296875 -19.96875 C 38.828125 -18.226562 39.59375 -15.867188 39.59375 -12.890625 C 39.59375 -10.429688 38.929688 -8.191406 37.609375 -6.171875 C 36.285156 -4.148438 34.253906 -2.546875 31.515625 -1.359375 C 28.773438 -0.171875 25.40625 0.421875 21.40625 0.421875 Z M 21.40625 0.421875 "/></g></g></g></svg>